<svg id="Layer_2" data-name="Layer 2" xmlns="http://www.w3.org/2000/svg" viewBox="0 0 1001 1001.23"><title>tile1</title><path d="M550.09,1000H449c0-254-195-451.7-449-451.7V449C298.23,449,550.09,701.77,550.09,1000Z" transform="translate(0.5 0.5)" fill="#231f20" stroke="#fff" stroke-miterlimit="10"/><path d="M700,0c0,165.69,134.31,300,300,300V200C889.54,200,800,110.46,800,0Z" transform="translate(0.5 0.5)" fill="#231f20" stroke="#fff" stroke-miterlimit="10"/><path d="M700,0c0,165.69,134.31,300,300,300V200C889.54,200,800,110.46,800,0Z" transform="translate(0.5 0.5)" fill="#231f20" stroke="#fff" stroke-miterlimit="10"/><polygon points="449.75 0.5 550.37 0.5 550.5 100.5 925.5 450.5 1000.5 453.1 1000.5 552.38 900.5 550.5 450.5 125.5 449.75 0.5" fill="#231f20" stroke="#fff" stroke-miterlimit="10"/><polygon points="301.27 1000.73 300.73 899.73 100.73 699.73 0.73 699.73 0.73 799.73 50.73 799.73 200.73 949.73 200.73 999.73 301.27 1000.73" fill="#231f20" stroke="#fff" stroke-miterlimit="10"/><polygon points="0.5 200.5 0.5 300.5 200.5 300.5 700.5 800.5 699.73 1000.73 801.69 1000.73 800.5 750.5 250.5 200.5 0.5 200.5" fill="#231f20" stroke="#fff" stroke-miterlimit="10"/><polygon points="200.5 75.5 199.54 0.5 300.16 0.5 300.5 50.5 950.5 700.5 1000.5 700.63 1000.5 799.91 925.5 800.5 200.5 75.5" fill="#020202" stroke="#231f20" stroke-miterlimit="10"/></svg>