<?xml version="1.0" encoding="utf-8"?>
<!-- Generator: Adobe Illustrator 23.0.3, SVG Export Plug-In . SVG Version: 6.00 Build 0)  -->
<svg version="1.1" id="Layer_1" xmlns="http://www.w3.org/2000/svg" xmlns:xlink="http://www.w3.org/1999/xlink" x="0px" y="0px"
	 viewBox="0 0 1001 1001.2" style="enable-background:new 0 0 1001 1001.2;" xml:space="preserve">
<style type="text/css">
	.st0{stroke:#000000;stroke-miterlimit:10;}
</style>
<title>tile7</title>
<path class="st0" d="M700,1.2c0,165.7,134.3,300,300,300v-100c-110.5,0-200-89.5-200-200H700z"/>
<polygon class="st0" points="449.8,0.5 550.4,0.5 550.5,100.5 925.5,450.5 1000.5,453.1 1000.5,552.4 900.5,550.5 450.5,125.5 "/>
<polygon class="st0" points="0.5,200.5 0.5,300.5 200.5,300.5 700.5,800.5 699.7,1000.7 801.7,1000.7 800.5,750.5 250.5,200.5 "/>
<polygon class="st0" points="200.5,75.5 199.5,0.5 300.2,0.5 300.5,50.5 950.5,700.5 1000.5,700.6 1000.5,799.9 925.5,800.5 "/>
<path class="st0" d="M550.5,1000.5h-100c0-93.1-63.8-171.2-150-193.2c-16.1-4.1-32.7-6.2-49.4-6.2h-0.6l-50.4-0.2L0.5,800.1v-99.7
	l193.2,0.1h56.8c15.5,0,31.1,1.2,46.4,3.6C440.6,726.4,550.5,850.6,550.5,1000.5z"/>
<path class="st0" d="M297.4,693.5c-15.4-2.3-30.9-3.4-46.4-3.4h-56.8c-22-82.2-100.1-143-193.2-143v-95.4
	C150.9,451.7,275.1,556.5,297.4,693.5z"/>
<path class="st0" d="M300.6,1000.5h-99.7l-0.8-190l50.4,0.2h0.6c16.6,0,33.2,2,49.4,5.9L300.6,1000.5z"/>
</svg>
