<?xml version="1.0" encoding="utf-8"?>
<!-- Generator: Adobe Illustrator 23.0.3, SVG Export Plug-In . SVG Version: 6.00 Build 0)  -->
<svg version="1.1" id="Layer_1" xmlns="http://www.w3.org/2000/svg" xmlns:xlink="http://www.w3.org/1999/xlink" x="0px" y="0px"
	 viewBox="0 0 1001 1001.2" style="enable-background:new 0 0 1001 1001.2;" xml:space="preserve">
<style type="text/css">
	.st0{fill:#231F20;stroke:#FFFFFF;stroke-miterlimit:10;}
</style>
<path class="st0" d="M550.6,1000.5H449.5c0-254-195-451.7-449-451.7v-99.3C298.7,449.5,550.6,702.3,550.6,1000.5z"/>
<path class="st0" d="M700.5,0.5c0,165.7,134.3,300,300,300v-100c-110.5,0-200-89.5-200-200H700.5z"/>
<polygon class="st0" points="449.8,0.5 550.4,0.5 550.5,175.5 850.5,450.5 1000.5,453.1 1000.5,552.4 800.5,550.5 450.5,200.5 "/>
<polygon class="st0" points="301.3,1000.7 300.7,899.7 100.7,699.7 0.7,699.7 0.7,799.7 50.7,799.7 200.7,949.7 200.7,999.7 "/>
<polygon class="st0" points="0.5,200.5 0.5,300.5 200.5,300.5 700.5,800.5 699.7,1000.7 801.7,1000.7 800.5,750.5 250.5,200.5 "/>
</svg>
