<?xml version="1.0" encoding="utf-8"?>
<!-- Generator: Adobe Illustrator 23.0.4, SVG Export Plug-In . SVG Version: 6.00 Build 0)  -->
<svg version="1.1" id="Layer_1" xmlns="http://www.w3.org/2000/svg" xmlns:xlink="http://www.w3.org/1999/xlink" x="0px" y="0px"
	 viewBox="0 0 1000 1000" enable-background="new 0 0 1000 1000" xml:space="preserve">
<circle fill="#FFFFFF" stroke="#000000" stroke-miterlimit="10" cx="211.2" cy="172" r="132"/>
<g>
	<path fill="#614EA0" stroke="#ED1C24" stroke-width="6" stroke-miterlimit="10" d="M841.4,689.6c-26.3,97.8-99.1,176.5-193.2,211
		c26.5,36.8,69.8,60.8,118.6,60.8c80.7,0,146.1-65.4,146.1-146.1C913,761.8,884.3,715.1,841.4,689.6z"/>
	<path fill="#614EA0" stroke="#ED1C24" stroke-width="6" stroke-miterlimit="10" d="M766.9,669.2c27.2,0,52.7,7.5,74.5,20.4
		c6.9-25.8,10.7-52.9,10.7-80.9c0-152.4-109.7-279.2-254.4-305.8v255.5H383.2V340.8c-91.5,54.1-153,153.8-153,267.8
		c0,171.7,139.2,310.9,310.9,310.9c37.6,0,73.7-6.7,107.1-18.9c-17.3-24-27.5-53.5-27.5-85.3C620.7,734.6,686.2,669.2,766.9,669.2z"
		/>
</g>
</svg>
