<svg id="Layer_1" data-name="Layer 1" xmlns="http://www.w3.org/2000/svg" viewBox="0 0 1001 1001"><title>tile1c</title><path d="M800,0H700C657.19,214,307.51,656.07,0,700V800C358.87,755.14,755.84,265,800,0Z" transform="translate(0.5 0.5)" fill="#231f20" stroke="#231f20" stroke-miterlimit="10"/><path d="M200.9,1000h100c0-95.39,66.37-147,162.22-174.42q6.88-45,17.17-88C321.56,775.08,200.9,850.08,200.9,1000Z" transform="translate(0.5 0.5)" fill="#231f20" stroke="#231f20" stroke-miterlimit="10"/><path d="M1000,800V700c-53.28,0-112.45-.11-173.8,1.33-8,28.68-13.61,60.65-17.55,95.23C877.71,797.54,944,800,1000,800Z" transform="translate(0.5 0.5)" fill="#231f20" stroke="#231f20" stroke-miterlimit="10"/><path d="M569.4,805.29c45.62-5.41,94.07-7.88,142.83-8.74a858.32,858.32,0,0,1,17.3-91.47c-46.44,2.61-93,6.56-138.26,12.54C582.73,746.08,575.41,775.38,569.4,805.29Z" transform="translate(0.5 0.5)" fill="#231f20" stroke="#231f20" stroke-miterlimit="10"/><path d="M1000,300V200c-240.56,0-445,224.63-519.71,537.55a1123.08,1123.08,0,0,1,111-19.93C662.59,480,818.78,300,1000,300Z" transform="translate(0.5 0.5)" fill="#231f20" stroke="#231f20" stroke-miterlimit="10"/><path d="M450,1000H550a992.1,992.1,0,0,1,19.4-194.71c-37.86,4.48-73.76,11-106.28,20.29A1155.37,1155.37,0,0,0,450,1000Z" transform="translate(0.5 0.5)" fill="#231f20" stroke="#231f20" stroke-miterlimit="10"/><path d="M275.12,275.12a952.62,952.62,0,0,1-99.31,16.08C150.57,388.55,100,450,0,450V550C157.86,550,238.86,439.45,275.12,275.12Z" transform="translate(0.5 0.5)" fill="#231f20" stroke="#231f20" stroke-miterlimit="10"/><path d="M300,0H200c0,69.05-1.5,134.27-7.47,192.53,35.76-3.66,68.9-9,98.67-16.72C297.36,120.6,300,61.48,300,0Z" transform="translate(0.5 0.5)" fill="#231f20" stroke="#231f20" stroke-miterlimit="10"/><path d="M1000,550V450c-151.44,0-232.14,101.74-270.47,255.09,32.47-1.83,64.86-3,96.67-3.75C852.07,608.32,902.6,550,1000,550Z" transform="translate(0.5 0.5)" fill="#231f20" stroke="#231f20" stroke-miterlimit="10"/><path d="M712.23,796.55C703.61,859.48,700,928.13,700,1000H800c0-73.39,1.69-142.46,8.65-203.44C776.86,796.11,744.48,796,712.23,796.55Z" transform="translate(0.5 0.5)" fill="#231f20" stroke="#231f20" stroke-miterlimit="10"/><path d="M0,200V300c61.48,0,120.6-2.64,175.81-8.8,7.72-29.77,13.06-62.91,16.72-98.67C134.27,198.5,69.05,200,0,200Z" transform="translate(0.5 0.5)" fill="#231f20" stroke="#231f20" stroke-miterlimit="10"/><path d="M550,0H450c0,100-61.46,150.57-158.81,175.81a950,950,0,0,1-16.08,99.31C439.45,238.86,550,157.86,550,0Z" transform="translate(0.5 0.5)" fill="#231f20" stroke="#231f20" stroke-miterlimit="10"/></svg>