<?xml version="1.0" encoding="utf-8"?>
<!-- Generator: Adobe Illustrator 23.0.3, SVG Export Plug-In . SVG Version: 6.00 Build 0)  -->
<svg version="1.1" id="Layer_1" xmlns="http://www.w3.org/2000/svg" xmlns:xlink="http://www.w3.org/1999/xlink" x="0px" y="0px"
	 viewBox="0 0 1001 1001" style="enable-background:new 0 0 1001 1001;" xml:space="preserve">
<style type="text/css">
	.st0{fill:#231F20;stroke:#231F20;stroke-miterlimit:10;}
</style>
<title>tile_a</title>
<path class="st0" d="M1000.5,700.5v100c-400-50-750-500-800-800h100C350.5,250.5,650.5,650.5,1000.5,700.5z"/>
<path class="st0" d="M699.6,1000.5h100c0-303.8-495.3-300-799.1-300v100C249,800.5,699.6,752,699.6,1000.5z"/>
<path class="st0" d="M450.5,1000.5h100c0-441.8-246.2-800-550-800v100C249,300.5,450.5,639,450.5,1000.5z"/>
<path class="st0" d="M1000.5,450.5v100c-235.6,0-300-246.2-300-550h100C800.5,250.5,820.1,450.5,1000.5,450.5z"/>
<path class="st0" d="M0.5,550.5v-100c235.6,0,300,246.2,300,550h-100C200.5,750.5,180.9,550.5,0.5,550.5z"/>
<path class="st0" d="M550.5,0.5h-100c0,235.6,246.2,300,550,300v-100C750.5,200.5,550.5,180.9,550.5,0.5z"/>
</svg>
